<svg width="22" height="22" viewBox="0 0 22 22" fill="none" xmlns="http://www.w3.org/2000/svg">
<g clip-path="url(#clip0_1105_23)">
<g clip-path="url(#clip1_1105_23)">
<path d="M10.795 20H4C3.46957 20 2.96086 19.7893 2.58579 19.4142C2.21071 19.0391 2 18.5304 2 18V6C2 5.46957 2.21071 4.96086 2.58579 4.58579C2.96086 4.21071 3.46957 4 4 4H16C16.5304 4 17.0391 4.21071 17.4142 4.58579C17.7893 4.96086 18 5.46957 18 6V10" stroke="#FEF2C5" stroke-width="2" stroke-linecap="round" stroke-linejoin="round"/>
<path d="M13 17C13 18.0609 13.4214 19.0783 14.1716 19.8284C14.9217 20.5786 15.9391 21 17 21C18.0609 21 19.0783 20.5786 19.8284 19.8284C20.5786 19.0783 21 18.0609 21 17C21 15.9391 20.5786 14.9217 19.8284 14.1716C19.0783 13.4214 18.0609 13 17 13C15.9391 13 14.9217 13.4214 14.1716 14.1716C13.4214 14.9217 13 15.9391 13 17Z" stroke="#FEF2C5" stroke-width="2" stroke-linecap="round" stroke-linejoin="round"/>
<path d="M14 2V6" stroke="#FEF2C5" stroke-width="2" stroke-linecap="round" stroke-linejoin="round"/>
<path d="M6 2V6" stroke="#FEF2C5" stroke-width="2" stroke-linecap="round" stroke-linejoin="round"/>
<path d="M2 10H18" stroke="#FEF2C5" stroke-width="2" stroke-linecap="round" stroke-linejoin="round"/>
<path d="M17 15.496V17L18 18" stroke="#FEF2C5" stroke-width="2" stroke-linecap="round" stroke-linejoin="round"/>
</g>
</g>
<defs>
<clipPath id="clip0_1105_23">
<rect width="22" height="22" fill="white"/>
</clipPath>
<clipPath id="clip1_1105_23">
<rect width="24" height="24" fill="white" transform="translate(-1 -1)"/>
</clipPath>
</defs>
</svg>
